<svg xmlns="http://www.w3.org/2000/svg" width="800" height="800" viewBox="0 0 32 32">
    <title>books</title>
    <path
        d="M30.639 26.361 24.428 3.178A3.257 3.257 0 0 0 20.425.886l.023-.005-2.896.776c-.23.065-.429.145-.618.243l.018-.008A3.23 3.23 0 0 0 14.499.749H11.5c-.76.003-1.457.27-2.006.713l.006-.005A3.2 3.2 0 0 0 7.501.749H4.5a3.254 3.254 0 0 0-3.25 3.25v24a3.254 3.254 0 0 0 3.25 3.25h3a3.2 3.2 0 0 0 2.006-.712l-.006.005c.543.438 1.24.704 1.999.708h2.999a3.254 3.254 0 0 0 3.25-3.25V14.947l3.717 13.873a3.25 3.25 0 0 0 4.002 2.291l-.023.005 2.898-.775a3.26 3.26 0 0 0 2.292-4.003zm-11.613-16.3 4.346-1.165 3.494 13.042-4.345 1.164zm-.827-5.989 2.895-.775a.762.762 0 0 1 .919.524l.001.005.712 2.656-4.346 1.165-.632-2.357v-.848a.75.75 0 0 1 .446-.37l.005-.001zM11.5 3.25h2.998a.76.76 0 0 1 .75.749v2.75l-4.498.001V4a.76.76 0 0 1 .749-.75zm-3.25 19.5h-4.5V9.25l4.5-.001zm2.5-13.5 4.498-.001V22.75H10.75zm-6.25-6h3a.76.76 0 0 1 .75.749v2.75l-4.5.001V4a.76.76 0 0 1 .749-.75zm3 25.5h-3a.76.76 0 0 1-.75-.749V25.25h4.5V28a.76.76 0 0 1-.749.75zm6.998 0H11.5a.76.76 0 0 1-.75-.749V25.25h4.498V28a.76.76 0 0 1-.749.75zm13.195-.822-2.896.775a.75.75 0 0 1-.57-.078l.004.002a.75.75 0 0 1-.35-.45l-.001-.005-.711-2.655 4.345-1.164.712 2.657q.023.086.023.186a.76.76 0 0 1-.549.73l-.005.001z" />
</svg>