<svg xmlns="http://www.w3.org/2000/svg" xml:space="preserve" width="800" height="800"
    viewBox="0 0 294.516 294.516"><path d="M71.774 124.77a9.996 9.996 0 0 0 10.071 0c5.959-3.474 58.219-34.893 58.219-68.077 0-20.295-16.433-36.807-36.631-36.807-10.479 0-19.942 4.445-26.625 11.558-6.683-7.112-16.147-11.558-26.627-11.558-20.199 0-36.633 16.512-36.633 36.807 0 33.184 52.266 64.603 58.226 68.077M50.181 39.886c9.169 0 16.628 7.539 16.628 16.807 0 5.522 4.478 10 10 10s10-4.478 10-10c0-9.268 7.457-16.807 16.624-16.807 9.17 0 16.631 7.539 16.631 16.807 0 15.033-24.742 35.905-43.255 47.717-18.516-11.811-43.261-32.683-43.261-47.717 0-9.268 7.462-16.807 16.633-16.807M291.587 175.059l-38.895-38.893c-7.717-7.717-21.766-13.535-32.677-13.535h-102c-13.785 0-25 11.215-25 25v3c0 13.785 11.215 25 25 25h26.857l-5.322 5.322c-3.634 3.636-11.878 6.381-16.971 5.657l-85.801-12.258c-11.289-1.612-24.865 2.239-31.584 8.957C1.02 187.483-.764 193.043.3 198.563c1.248 6.479 6.191 12.009 13.564 15.168l87.925 37.682c9.627 4.126 24.547 5.32 34.704 2.781l36.896-9.225c8.631-2.158 21.762-6.676 29.894-10.286l9.745-4.326c3.601-1.599 9.747-.315 12.408 2.589l35.204 38.438a9.98 9.98 0 0 0 7.378 3.246 9.97 9.97 0 0 0 6.751-2.625c4.073-3.73 4.351-10.057.621-14.129l-35.205-38.439c-8.402-9.176-23.896-12.409-35.272-7.36l-9.745 4.326c-7.002 3.108-19.197 7.305-26.63 9.163l-36.896 9.225c-5.906 1.477-16.378.637-21.974-1.762l-87.202-37.372c3.061-1.206 7.56-2.067 11.486-1.507l85.801 12.258c11.29 1.619 25.879-3.252 33.94-11.314l11.787-11.787c8.213-8.213 6.409-15.596 5.252-18.389s-5.102-9.289-16.717-9.289h-36c-2.71 0-5-2.29-5-5v-3c0-2.71 2.29-5 5-5h102c5.58 0 14.589 3.731 18.535 7.678l38.894 38.894c3.906 3.904 10.236 3.904 14.143 0 3.905-3.905 3.905-10.237 0-14.142"/></svg>