<svg xmlns="http://www.w3.org/2000/svg" xml:space="preserve" width="800" height="800"
    viewBox="0 0 481.029 481.029"><path d="m111.035 119.349-17.768-9.72-9.72-17.768c-2.824-5.152-11.24-5.144-14.04 0l-9.712 17.768-17.768 9.72a7.99 7.99 0 0 0-4.16 7.016c0 2.928 1.6 5.616 4.168 7.024l17.768 9.712 9.712 17.768c1.4 2.568 4.096 4.168 7.016 4.168s5.616-1.592 7.016-4.168l9.72-17.768 17.76-9.72a7.991 7.991 0 0 0 .008-14.032m-27.497 10.84a7.95 7.95 0 0 0-3.184 3.176l-3.824 6.992-3.824-6.992a7.97 7.97 0 0 0-3.184-3.184l-6.984-3.816 6.992-3.832a8 8 0 0 0 3.176-3.176l3.824-6.984 3.824 6.984a8 8 0 0 0 3.176 3.176l6.992 3.832zM263.035 31.349l-17.768-9.72-9.712-17.768c-2.824-5.152-11.24-5.144-14.04 0l-9.712 17.768-17.776 9.72a7.99 7.99 0 0 0-4.16 7.016c0 2.928 1.6 5.616 4.168 7.024l17.768 9.712 9.712 17.768a8 8 0 0 0 7.016 4.168 7.98 7.98 0 0 0 7.016-4.168l9.72-17.768 17.76-9.72a7.991 7.991 0 0 0 .008-14.032m-27.497 10.84a7.95 7.95 0 0 0-3.184 3.176l-3.824 6.992-3.824-6.992a7.97 7.97 0 0 0-3.184-3.184l-6.984-3.816 6.992-3.832a8 8 0 0 0 3.176-3.176l3.824-6.984 3.824 6.984a8 8 0 0 0 3.176 3.176l6.992 3.832zM458.587 393.237l-66.208-181.904 53.912-97.28c2.12-3.816.784-8.624-3-10.808l-20.784-12c-3.696-2.136-8.008-2.696-12.144-1.6a15.92 15.92 0 0 0-9.72 7.456l-6.928-4c-5.552-3.192-12.024-4.056-18.216-2.4s-11.368 5.624-14.576 11.176l-36 62.36c-3.208 5.544-4.056 12.016-2.4 18.208 1.088 4.08 3.264 7.648 6.16 10.568H161.539a24.06 24.06 0 0 0-19.664 10.232 24.02 24.02 0 0 0-2.896 21.968c3.448 9.464 12.512 15.816 22.56 15.816h30.976v64c0 4.424 3.584 8 8 8h80c4.416 0 8-3.576 8-8v-64h65.648l55.328 152H24.515c-13.232 0-24 10.768-24 24 0 10.416 6.712 19.216 16 22.528v17.472c0 13.232 10.768 24 24 24h8c13.232 0 24-10.768 24-24v-16h216v8c0 17.648 14.352 32 32 32h128c17.648 0 32-14.352 32-32v-32c-.001-12.528-9.673-22.72-21.928-23.792M192.515 225.029h-30.976c-3.352 0-6.368-2.12-7.52-5.264-.904-2.488-.552-5.16.968-7.32a7.9 7.9 0 0 1 6.552-3.416h30.976zm79.999 72h-64v-16h64zm0-32h-64v-24h64zm0-40h-64v-16h64zm-215.999 232c0 4.416-3.592 8-8 8h-8c-4.408 0-8-3.584-8-8v-16h24zm16-32h-48c-4.408 0-8-3.584-8-8s3.592-8 8-8h48zm32 0h-16v-16h16zm32 0h-16v-16h16zm271.999-312.992v-.024l4.992-6.904 14.48 8.072-46.168 83.76a28 28 0 0 0-1.408-.816c-.48-.264-.888-.536-1.384-.776-4.192-2.072-8.68-3.44-13.36-3.936-.32-.04-1.624-.072-1.936-.104zm-120 112.992v-16h50.744l6.912 16zm60.144-37.864-6.936-4a7.95 7.95 0 0 1-3.72-4.848 7.94 7.94 0 0 1 .8-6.072l36-62.36a8 8 0 0 1 4.856-3.728 8.4 8.4 0 0 1 2.08-.272 8 8 0 0 1 3.992 1.08l6.928 4-29.336 50.8zm10.88 21.864h9.368c1.264 0 2.432.376 3.52.92.472.248.928.56 1.392.84 1.144.904 2.088 2.072 2.608 3.504l65.064 178.736h-14.976zm40.976 200h16v16h-16zm-32 0h16v16h-16zm-72 16h-144v-16h200v16zm168 24c0 8.824-7.176 16-16 16h-128c-8.824 0-16-7.176-16-16v-8h160zm0-24h-32v-16h24c4.408 0 8 3.584 8 8z"/></svg>