<svg xmlns="http://www.w3.org/2000/svg" width="800" height="800" fill="none" viewBox="0 0 24 24">
    <path fill="#000"
        d="M15.47 11.293a1 1 0 1 0-1.415 1.414 1 1 0 0 0 1.415-1.414M16.177 9.172a1 1 0 1 1 1.414 1.414 1 1 0 0 1-1.414-1.414M19.712 11.293a1 1 0 1 0-1.414 1.414 1 1 0 0 0 1.414-1.414M16.177 13.414a1 1 0 1 1 1.414 1.415 1 1 0 0 1-1.414-1.415M6 13H4v-2h2V9h2v2h2v2H8v2H6z" />
    <path fill="#000" fill-rule="evenodd"
        d="M7 5a7 7 0 0 0 0 14h10a7 7 0 1 0 0-14zm10 2H7a5 5 0 0 0 0 10h10a5 5 0 0 0 0-10"
        clip-rule="evenodd" />
</svg>