<?xml version="1.0" encoding="iso-8859-1"?>
<!-- Uploaded to: SVG Repo, www.svgrepo.com, Generator: SVG Repo Mixer Tools -->
<svg fill="#000000" height="800px" width="800px" version="1.1" id="Layer_1" xmlns="http://www.w3.org/2000/svg" xmlns:xlink="http://www.w3.org/1999/xlink" 
	 viewBox="0 0 512 512" xml:space="preserve">
<g>
	<g>
		<path d="M461.913,139.13h-16.696v-36.263c19.433-6.892,33.391-25.45,33.391-47.215c0-27.618-22.469-50.087-50.087-50.087h-66.783
			c-27.618,0-50.087,22.469-50.087,50.087c0,21.766,13.959,40.323,33.391,47.215v36.263h-29.45c-6.366,0-12.087-3.537-14.934-9.229
			l-48.324-96.648c-8.539-17.079-25.706-27.688-44.799-27.688H50.087C22.469,5.565,0,28.034,0,55.652v400.696
			c0,27.618,22.469,50.087,50.087,50.087h411.826c27.618,0,50.087-22.469,50.087-50.087v-267.13
			C512,161.599,489.531,139.13,461.913,139.13z M361.739,38.957h66.783c9.206,0,16.696,7.49,16.696,16.696
			c0,9.206-7.49,16.696-16.696,16.696h-66.783c-9.206,0-16.696-7.49-16.696-16.696C345.043,46.446,352.533,38.957,361.739,38.957z
			 M411.826,105.739v33.391h-33.391v-33.391H411.826z M478.609,456.348c0,9.206-7.49,16.696-16.696,16.696H50.087
			c-9.206,0-16.696-7.49-16.696-16.696V55.652c0-9.206,7.49-16.696,16.696-16.696h157.45c6.365,0,12.087,3.537,14.934,9.229
			l48.324,96.648c8.539,17.079,25.706,27.688,44.799,27.688c16.939,0,131.252,0,146.32,0c9.206,0,16.696,7.49,16.696,16.696V456.348
			z"/>
	</g>
</g>
<g>
	<g>
		<path d="M235.219,148.362l-33.377-66.783c-2.828-5.658-8.611-9.232-14.935-9.232H83.478c-9.22,0-16.696,7.475-16.696,16.696
			v66.783c0,9.22,7.475,16.696,16.696,16.696h136.806C232.667,172.522,240.765,159.461,235.219,148.362z M100.174,139.13v-33.391
			h76.413l16.689,33.391H100.174z"/>
	</g>
</g>
<g>
	<g>
		<path d="M265.307,208.749c-5.629-3.78-12.987-3.78-18.616,0c-3.029,2.034-74.17,50.54-74.17,114.033
			c0,51.693,45.779,82.448,66.783,93.837v6.337c0,9.22,7.475,16.696,16.696,16.696c9.22,0,16.696-7.475,16.696-16.696v-6.337
			c21.003-11.39,66.783-42.144,66.783-93.837C339.478,259.289,268.337,210.783,265.307,208.749z M272.696,377.136v-54.353
			c0-9.22-7.475-16.696-16.696-16.696c-9.22,0-16.696,7.475-16.696,16.696v54.467c-15.623-11.424-33.391-29.828-33.391-54.467
			c0-34.435,33.476-65.816,50.166-79.321c19.462,15.705,50.008,47.174,50.008,79.321
			C306.087,347.226,288.318,365.654,272.696,377.136z"/>
	</g>
</g>
</svg>