<svg xmlns="http://www.w3.org/2000/svg" xml:space="preserve" width="800" height="800"
    viewBox="0 0 512 512"><path d="M461.913 139.13h-16.696v-36.263c19.433-6.892 33.391-25.45 33.391-47.215 0-27.618-22.469-50.087-50.087-50.087h-66.783c-27.618 0-50.087 22.469-50.087 50.087 0 21.766 13.959 40.323 33.391 47.215v36.263h-29.45c-6.366 0-12.087-3.537-14.934-9.229l-48.324-96.648c-8.539-17.079-25.706-27.688-44.799-27.688H50.087C22.469 5.565 0 28.034 0 55.652v400.696c0 27.618 22.469 50.087 50.087 50.087h411.826c27.618 0 50.087-22.469 50.087-50.087v-267.13c0-27.619-22.469-50.088-50.087-50.088M361.739 38.957h66.783c9.206 0 16.696 7.49 16.696 16.696s-7.49 16.696-16.696 16.696h-66.783c-9.206 0-16.696-7.49-16.696-16.696s7.49-16.696 16.696-16.696m50.087 66.782v33.391h-33.391v-33.391zm66.783 350.609c0 9.206-7.49 16.696-16.696 16.696H50.087c-9.206 0-16.696-7.49-16.696-16.696V55.652c0-9.206 7.49-16.696 16.696-16.696h157.45c6.365 0 12.087 3.537 14.934 9.229l48.324 96.648c8.539 17.079 25.706 27.688 44.799 27.688h146.32c9.206 0 16.696 7.49 16.696 16.696z"/>
    <path
        d="m235.219 148.362-33.377-66.783a16.7 16.7 0 0 0-14.935-9.232H83.478c-9.22 0-16.696 7.475-16.696 16.696v66.783c0 9.22 7.475 16.696 16.696 16.696h136.806c12.383 0 20.481-13.061 14.935-24.16m-135.045-9.232v-33.391h76.413l16.689 33.391zM265.307 208.749a16.7 16.7 0 0 0-18.616 0c-3.029 2.034-74.17 50.54-74.17 114.033 0 51.693 45.779 82.448 66.783 93.837v6.337c0 9.22 7.475 16.696 16.696 16.696 9.22 0 16.696-7.475 16.696-16.696v-6.337c21.003-11.39 66.783-42.144 66.783-93.837-.001-63.493-71.142-111.999-74.172-114.033m7.389 168.387v-54.353c0-9.22-7.475-16.696-16.696-16.696-9.22 0-16.696 7.475-16.696 16.696v54.467c-15.623-11.424-33.391-29.828-33.391-54.467 0-34.435 33.476-65.816 50.166-79.321 19.462 15.705 50.008 47.174 50.008 79.321 0 24.443-17.769 42.871-33.391 54.353" /></svg>