<?xml version="1.0" encoding="iso-8859-1"?>
<!-- Uploaded to: SVG Repo, www.svgrepo.com, Generator: SVG Repo Mixer Tools -->
<svg fill="#000000" height="100px" width="100px" version="1.1" id="Layer_1" xmlns="http://www.w3.org/2000/svg" xmlns:xlink="http://www.w3.org/1999/xlink"
	 viewBox="0 0 511.998 511.998" xml:space="preserve">
<g>
	<g>
		<g>
			<path d="M124.133,208.878c-3.934-2.569-9.225-1.485-11.81,2.458c-43.716,66.679-35.866,201.617-35.507,207.326
				c0.282,4.523,4.045,8.004,8.508,8.004c0.179,0,0.358,0,0.538-0.017c4.702-0.29,8.277-4.343,7.987-9.045
				c-0.085-1.34-7.851-134.989,32.742-196.907C129.176,216.754,128.075,211.464,124.133,208.878z"/>
			<path d="M426.657,426.666h0.316c4.71-0.179,8.397-4.13,8.218-8.841c-0.085-2.466-2.304-61.167-15.113-120.943
				c-17.946-83.755-47.309-126.216-87.279-126.216h-8.201c3.541-45.227,34.995-84.745,78.899-97.809
				c4.514-1.348,7.091-6.093,5.743-10.615c-1.34-4.506-6.076-7.1-10.607-5.743c-53.837,16.026-91.435,66.483-91.435,122.701
				c0,4.71,3.814,8.533,8.533,8.533h17.067c63.206,0,83.029,166.536,85.342,230.707
				C418.311,423.048,422.091,426.666,426.657,426.666z"/>
			<path d="M230.398,273.066c32.93,0,59.733-26.795,59.733-59.733v-34.133c0-77.124,60.501-140.382,136.533-144.819v59.486
				c0,1.801,0.572,3.558,1.63,5.018l65.391,89.899c-2.927,5.53-9.839,15.206-22.716,15.966l-58.01-24.858
				c-4.309-1.852-9.344,0.154-11.204,4.48c-1.86,4.335,0.154,9.352,4.48,11.204l59.733,25.6c1.058,0.461,2.202,0.691,3.362,0.691
				c31.394,0,41.796-30.148,42.223-31.437c0.879-2.611,0.435-5.487-1.186-7.714l-66.637-91.622V25.599
				c0-4.71-3.814-8.533-8.533-8.533c-89.404,0-162.133,72.73-162.133,162.133v34.133c0,23.526-19.14,42.667-42.667,42.667
				c-23.526,0-42.667-19.14-42.667-42.667v-25.6h59.733c4.719,0,8.533-3.823,8.533-8.533c0-4.71-3.814-8.533-8.533-8.533h-68.267
				c-4.719,0-8.533,3.823-8.533,8.533v34.133C170.665,246.271,197.468,273.066,230.398,273.066z"/>
			<path d="M118.859,443.715c0.205,0.008,0.418,0.017,0.614,0.017c4.437,0,8.183-3.43,8.499-7.927
				c0.324-4.548,9.336-111.539,128.026-111.539c118.306,0,127.684,107,128.026,111.556c0.35,4.693,4.258,8.124,9.131,7.885
				c4.693-0.35,8.226-4.42,7.885-9.114c-3.14-44.066-37.504-127.394-145.041-127.394s-141.901,83.328-145.041,127.394
				C110.616,439.287,114.157,443.374,118.859,443.715z"/>
			<path d="M508.756,394.384c-3.686-2.918-9.037-2.304-11.981,1.382c-0.649,0.819-67.413,82.099-240.777,82.099
				c-168.943,0-239.863-81.05-240.93-82.287c-3.012-3.584-8.405-4.087-12.015-1.058c-3.61,3.029-4.087,8.414-1.067,12.023
				c3.029,3.61,76.066,88.388,254.012,88.388c182.306,0,251.324-84.975,254.165-88.585
				C513.082,402.653,512.442,397.311,508.756,394.384z"/>
			<path d="M25.598,273.066c2.005,0,20.429-0.521,47.403-18.5c3.925-2.611,4.984-7.91,2.364-11.836
				c-2.611-3.917-7.91-4.992-11.836-2.364c-10.121,6.741-18.748,10.581-25.199,12.766c9.353-22.323,36.514-65.399,106.735-65.399
				c4.719,0,8.533-3.823,8.533-8.533c0-4.71-3.814-8.533-8.533-8.533c-108.143,0-127.65,91.273-127.829,92.194
				c-0.503,2.509,0.145,5.103,1.766,7.083S23.038,273.066,25.598,273.066z"/>
			<path d="M396.798,93.866c-7.057,0-12.8,5.743-12.8,12.8c0,7.057,5.743,12.8,12.8,12.8c7.057,0,12.8-5.743,12.8-12.8
				C409.599,99.609,403.856,93.866,396.798,93.866z"/>
		</g>
	</g>
</g>
</svg>