<svg xmlns="http://www.w3.org/2000/svg" xml:space="preserve" width="100" height="100"
    viewBox="0 0 511.998 511.998"><path d="M124.133 208.878c-3.934-2.569-9.225-1.485-11.81 2.458-43.716 66.679-35.866 201.617-35.507 207.326.282 4.523 4.045 8.004 8.508 8.004.179 0 .358 0 .538-.017 4.702-.29 8.277-4.343 7.987-9.045-.085-1.34-7.851-134.989 32.742-196.907a8.537 8.537 0 0 0-2.458-11.819M426.657 426.666h.316c4.71-.179 8.397-4.13 8.218-8.841-.085-2.466-2.304-61.167-15.113-120.943-17.946-83.755-47.309-126.216-87.279-126.216h-8.201c3.541-45.227 34.995-84.745 78.899-97.809 4.514-1.348 7.091-6.093 5.743-10.615-1.34-4.506-6.076-7.1-10.607-5.743-53.837 16.026-91.435 66.483-91.435 122.701a8.53 8.53 0 0 0 8.533 8.533h17.067c63.206 0 83.029 166.536 85.342 230.707.171 4.608 3.951 8.226 8.517 8.226"/>
    <path
        d="M230.398 273.066c32.93 0 59.733-26.795 59.733-59.733V179.2c0-77.124 60.501-140.382 136.533-144.819v59.486c0 1.801.572 3.558 1.63 5.018l65.391 89.899c-2.927 5.53-9.839 15.206-22.716 15.966l-58.01-24.858c-4.309-1.852-9.344.154-11.204 4.48a8.53 8.53 0 0 0 4.48 11.204l59.733 25.6a8.4 8.4 0 0 0 3.362.691c31.394 0 41.796-30.148 42.223-31.437a8.5 8.5 0 0 0-1.186-7.714L443.73 91.094V25.599a8.53 8.53 0 0 0-8.533-8.533c-89.404 0-162.133 72.73-162.133 162.133v34.133c0 23.526-19.14 42.667-42.667 42.667-23.526 0-42.667-19.14-42.667-42.667v-25.6h59.733a8.53 8.53 0 0 0 8.533-8.533 8.53 8.53 0 0 0-8.533-8.533h-68.267a8.53 8.53 0 0 0-8.533 8.533v34.133c.002 32.939 26.805 59.734 59.735 59.734M118.859 443.715c.205.008.418.017.614.017 4.437 0 8.183-3.43 8.499-7.927.324-4.548 9.336-111.539 128.026-111.539 118.306 0 127.684 107 128.026 111.556.35 4.693 4.258 8.124 9.131 7.885 4.693-.35 8.226-4.42 7.885-9.114-3.14-44.066-37.504-127.394-145.041-127.394s-141.901 83.328-145.041 127.394c-.342 4.694 3.199 8.781 7.901 9.122" />
    <path
        d="M508.756 394.384c-3.686-2.918-9.037-2.304-11.981 1.382-.649.819-67.413 82.099-240.777 82.099-168.943 0-239.863-81.05-240.93-82.287-3.012-3.584-8.405-4.087-12.015-1.058s-4.087 8.414-1.067 12.023c3.029 3.61 76.066 88.388 254.012 88.388 182.306 0 251.324-84.975 254.165-88.585 2.919-3.693 2.279-9.035-1.407-11.962M25.598 273.066c2.005 0 20.429-.521 47.403-18.5 3.925-2.611 4.984-7.91 2.364-11.836-2.611-3.917-7.91-4.992-11.836-2.364-10.121 6.741-18.748 10.581-25.199 12.766 9.353-22.323 36.514-65.399 106.735-65.399a8.53 8.53 0 0 0 8.533-8.533 8.53 8.53 0 0 0-8.533-8.533c-108.143 0-127.65 91.273-127.829 92.194-.503 2.509.145 5.103 1.766 7.083s4.036 3.122 6.596 3.122M396.798 93.866c-7.057 0-12.8 5.743-12.8 12.8s5.743 12.8 12.8 12.8 12.8-5.743 12.8-12.8c.001-7.057-5.742-12.8-12.8-12.8" /></svg>