<?xml version="1.0" encoding="iso-8859-1"?>
<!-- Uploaded to: SVG Repo, www.svgrepo.com, Generator: SVG Repo Mixer Tools -->
<svg fill="#000000" height="800px" width="800px" version="1.1" id="Layer_1" xmlns="http://www.w3.org/2000/svg" xmlns:xlink="http://www.w3.org/1999/xlink" 
	 viewBox="0 0 512.001 512.001" xml:space="preserve">
<g>
	<g>
		<path d="M493.366,256.172c-8.952-1.142-16.912-2.239-24.032-3.326v-29.403l7.824,6.402c9.119,7.461,22.559,6.117,30.02-3.002
			c7.461-9.119,6.117-22.559-3.002-30.02l-234.667-192c-0.155-0.127-0.32-0.235-0.478-0.358c-0.242-0.187-0.484-0.372-0.732-0.547
			c-0.276-0.195-0.556-0.378-0.839-0.558c-0.259-0.165-0.517-0.331-0.782-0.484c-0.286-0.166-0.578-0.317-0.869-0.469
			c-0.269-0.14-0.537-0.282-0.811-0.409c-0.301-0.14-0.607-0.264-0.914-0.389c-0.273-0.112-0.543-0.228-0.82-0.328
			c-0.32-0.116-0.645-0.213-0.97-0.313c-0.269-0.083-0.535-0.173-0.806-0.245c-0.348-0.093-0.7-0.163-1.052-0.238
			c-0.253-0.054-0.504-0.117-0.758-0.162c-0.399-0.07-0.801-0.114-1.202-0.161c-0.211-0.025-0.42-0.062-0.631-0.08
			c-1.229-0.106-2.464-0.106-3.693,0c-0.211,0.018-0.42,0.055-0.631,0.08c-0.402,0.047-0.803,0.091-1.202,0.161
			c-0.254,0.044-0.505,0.108-0.758,0.162c-0.352,0.075-0.704,0.145-1.052,0.238c-0.271,0.072-0.538,0.162-0.806,0.245
			c-0.324,0.1-0.649,0.197-0.97,0.313c-0.276,0.1-0.547,0.216-0.82,0.328c-0.306,0.125-0.612,0.249-0.914,0.389
			c-0.274,0.127-0.542,0.269-0.811,0.409c-0.292,0.151-0.583,0.303-0.869,0.469c-0.264,0.153-0.523,0.318-0.782,0.484
			c-0.282,0.18-0.563,0.363-0.839,0.558c-0.248,0.175-0.49,0.36-0.732,0.547c-0.158,0.122-0.323,0.23-0.478,0.358l-234.667,192
			c-9.119,7.461-10.463,20.901-3.002,30.02c7.461,9.119,20.901,10.463,30.02,3.002l7.824-6.402v267.224
			c0,11.782,9.551,21.333,21.333,21.333h341.333c3.855,0,7.234-0.884,10.111-2.38c3.308-1.285,5.029-1.959,6.924-2.722
			c11.81-4.757,20.278-9.169,28.523-15.661c36.576-28.74,61.108-83.251,61.108-132.986v-80.917
			C512.001,266.595,504.018,257.53,493.366,256.172z M85.334,469.334V201.581L256.001,49.877l170.667,151.704v41.412
			c-3.86-1.477-6.962-3.023-9.362-4.65c-0.22-0.149-0.449-0.28-0.673-0.42c-0.234-0.146-0.464-0.302-0.703-0.439
			c-0.23-0.131-0.466-0.244-0.699-0.366c-0.243-0.127-0.482-0.264-0.729-0.381c-0.235-0.112-0.476-0.205-0.714-0.308
			c-0.251-0.109-0.5-0.226-0.754-0.325c-0.228-0.088-0.462-0.159-0.692-0.239c-0.269-0.094-0.537-0.196-0.809-0.279
			c-0.223-0.068-0.449-0.117-0.673-0.177c-0.285-0.076-0.568-0.161-0.855-0.225c-0.225-0.05-0.453-0.083-0.679-0.126
			c-0.289-0.055-0.577-0.118-0.868-0.161c-0.226-0.033-0.453-0.049-0.68-0.075c-0.294-0.034-0.587-0.076-0.881-0.097
			c-0.213-0.016-0.427-0.014-0.641-0.024c-0.309-0.013-0.617-0.034-0.926-0.034c-0.222,0-0.443,0.017-0.665,0.024
			c-0.301,0.009-0.602,0.011-0.903,0.033c-0.249,0.018-0.497,0.055-0.746,0.083c-0.271,0.03-0.544,0.05-0.814,0.09
			c-0.266,0.039-0.53,0.098-0.794,0.148c-0.251,0.047-0.504,0.084-0.753,0.14c-0.204,0.046-0.405,0.108-0.607,0.16
			c-0.307,0.079-0.616,0.15-0.921,0.243c-0.168,0.051-0.331,0.117-0.498,0.172c-0.335,0.111-0.671,0.218-1.002,0.346
			c-0.234,0.091-0.462,0.2-0.693,0.299c-0.259,0.111-0.52,0.213-0.775,0.334c-0.251,0.12-0.494,0.259-0.741,0.388
			c-0.229,0.12-0.461,0.23-0.686,0.359c-0.469,0.269-0.929,0.556-1.381,0.863c-11.091,7.531-31.449,12.133-76.048,17.821
			c-10.652,1.358-18.635,10.423-18.635,21.162v85.333c0,1.391,0.025,2.783,0.064,4.175c0.012,0.427,0.03,0.854,0.046,1.28
			c0.036,0.991,0.08,1.982,0.135,2.974c0.026,0.465,0.052,0.93,0.082,1.395c0.068,1.051,0.148,2.101,0.237,3.151
			c0.03,0.354,0.055,0.708,0.087,1.062c0.127,1.388,0.271,2.774,0.435,4.161c0.036,0.302,0.078,0.603,0.116,0.905
			c0.136,1.097,0.281,2.194,0.439,3.289c0.066,0.457,0.136,0.914,0.206,1.371c0.15,0.979,0.309,1.958,0.477,2.935
			c0.076,0.44,0.149,0.881,0.228,1.321c0.22,1.224,0.453,2.446,0.701,3.666c0.033,0.161,0.061,0.322,0.094,0.482
			c0.284,1.376,0.588,2.749,0.906,4.118c0.093,0.398,0.191,0.795,0.287,1.193c0.238,0.992,0.484,1.983,0.74,2.971
			c0.118,0.456,0.238,0.911,0.359,1.367c0.267,0.999,0.545,1.995,0.831,2.99c0.108,0.378,0.213,0.757,0.324,1.134
			c0.397,1.349,0.809,2.695,1.239,4.035c0.071,0.221,0.147,0.44,0.219,0.661c0.366,1.125,0.743,2.247,1.132,3.364
			c0.15,0.432,0.305,0.862,0.459,1.293c0.334,0.936,0.676,1.869,1.026,2.8c0.162,0.431,0.323,0.861,0.488,1.291
			c0.414,1.076,0.84,2.147,1.275,3.215c0.099,0.244,0.194,0.49,0.295,0.733c0.537,1.3,1.091,2.592,1.658,3.878
			c0.153,0.348,0.313,0.692,0.468,1.038c0.428,0.952,0.862,1.901,1.306,2.844c0.201,0.427,0.404,0.853,0.609,1.279
			c0.437,0.91,0.883,1.815,1.336,2.717c0.188,0.374,0.373,0.75,0.564,1.123c0.639,1.25,1.289,2.493,1.956,3.725
			c0.055,0.102,0.113,0.202,0.169,0.304c0.616,1.132,1.246,2.255,1.887,3.371c0.219,0.382,0.443,0.761,0.665,1.141
			c0.5,0.855,1.006,1.706,1.52,2.551c0.241,0.396,0.482,0.792,0.726,1.186c0.571,0.923,1.152,1.838,1.74,2.748
			c0.173,0.268,0.343,0.54,0.518,0.807c0.761,1.164,1.536,2.317,2.324,3.458c0.19,0.276,0.386,0.547,0.578,0.822
			c0.61,0.873,1.227,1.74,1.853,2.599c0.271,0.372,0.544,0.741,0.818,1.111c0.585,0.79,1.178,1.573,1.776,2.35
			c0.263,0.342,0.524,0.685,0.789,1.024c0.81,1.034,1.628,2.059,2.461,3.07c0.043,0.053,0.085,0.107,0.129,0.159
			c0.007,0.009,0.014,0.018,0.022,0.027H85.334z M469.334,358.251c0,37.077-18.908,79.09-44.818,99.45
			c-4.46,3.511-9.705,6.244-18.087,9.62c-0.367,0.148-0.725,0.291-1.096,0.439c-0.035-0.014-0.07-0.028-0.105-0.042
			c-0.355-0.141-0.702-0.28-1.054-0.422c-8.351-3.364-13.579-6.09-17.99-9.57c-26.754-21.022-44.851-59.079-44.851-95.059v-66.674
			c0.954-0.136,1.898-0.272,2.83-0.409c0.17-0.025,0.336-0.05,0.505-0.075c0.758-0.111,1.513-0.222,2.256-0.334
			c0.286-0.043,0.564-0.086,0.848-0.129c0.618-0.093,1.238-0.187,1.846-0.28c0.277-0.043,0.546-0.085,0.82-0.128
			c0.61-0.094,1.221-0.189,1.82-0.284c0.213-0.034,0.419-0.067,0.631-0.101c0.648-0.103,1.295-0.206,1.932-0.31
			c0.314-0.051,0.621-0.103,0.932-0.154c0.527-0.087,1.056-0.173,1.575-0.26c0.304-0.051,0.6-0.102,0.901-0.153
			c0.519-0.088,1.04-0.176,1.551-0.264c0.281-0.049,0.555-0.098,0.834-0.146c0.519-0.091,1.041-0.181,1.552-0.272
			c0.302-0.054,0.596-0.108,0.895-0.162c0.48-0.087,0.964-0.173,1.437-0.26c0.284-0.052,0.56-0.105,0.841-0.158
			c0.481-0.09,0.965-0.18,1.439-0.27c0.274-0.052,0.541-0.105,0.813-0.158c0.469-0.091,0.941-0.181,1.403-0.272
			c0.32-0.063,0.632-0.127,0.948-0.191c0.405-0.081,0.814-0.162,1.214-0.244c0.351-0.072,0.694-0.145,1.041-0.217
			c0.357-0.075,0.718-0.149,1.071-0.224c0.33-0.07,0.653-0.141,0.979-0.212c0.366-0.079,0.734-0.158,1.095-0.238
			c0.31-0.069,0.613-0.138,0.92-0.207c0.364-0.082,0.732-0.163,1.091-0.246c0.318-0.073,0.628-0.147,0.942-0.22
			c0.343-0.08,0.689-0.16,1.028-0.241c0.316-0.075,0.625-0.152,0.937-0.228c0.328-0.08,0.658-0.159,0.982-0.24
			c0.308-0.077,0.61-0.155,0.914-0.232c0.323-0.082,0.648-0.163,0.967-0.246c0.291-0.075,0.576-0.152,0.863-0.228
			c0.324-0.086,0.65-0.171,0.969-0.257c0.286-0.077,0.567-0.156,0.85-0.234c0.314-0.087,0.63-0.172,0.94-0.26
			c0.279-0.079,0.553-0.159,0.829-0.238c0.308-0.089,0.619-0.177,0.923-0.266c0.272-0.08,0.538-0.161,0.806-0.242
			c0.301-0.09,0.604-0.18,0.901-0.271c0.269-0.082,0.532-0.167,0.798-0.25c0.292-0.092,0.587-0.183,0.876-0.275
			c0.266-0.085,0.526-0.172,0.789-0.258c0.281-0.092,0.564-0.183,0.842-0.276c0.265-0.089,0.526-0.179,0.788-0.269
			c0.271-0.093,0.544-0.185,0.812-0.278c0.253-0.088,0.501-0.179,0.752-0.268c0.272-0.097,0.546-0.194,0.816-0.292
			c0.246-0.09,0.488-0.182,0.732-0.273c0.266-0.099,0.534-0.198,0.797-0.298c0.248-0.095,0.492-0.191,0.738-0.287
			c0.254-0.099,0.51-0.197,0.761-0.297c0.244-0.097,0.484-0.196,0.726-0.295c0.248-0.101,0.498-0.201,0.744-0.304
			c0.235-0.098,0.466-0.197,0.699-0.296c0.248-0.105,0.498-0.21,0.744-0.317c0.227-0.098,0.45-0.199,0.675-0.299
			c0.246-0.109,0.494-0.217,0.738-0.328c0.223-0.101,0.443-0.204,0.665-0.307c0.211-0.098,0.425-0.194,0.635-0.293
			c14.646,6.901,33.541,11.169,64,15.518V358.251z"/>
	</g>
</g>
</svg>