<svg xmlns="http://www.w3.org/2000/svg" xml:space="preserve" width="800" height="800"
    viewBox="0 0 512.001 512.001"><path d="M493.366 256.172c-8.952-1.142-16.912-2.239-24.032-3.326v-29.403l7.824 6.402c9.119 7.461 22.559 6.117 30.02-3.002s6.117-22.559-3.002-30.02l-234.667-192c-.155-.127-.32-.235-.478-.358a21 21 0 0 0-.732-.547 21 21 0 0 0-.839-.558c-.259-.165-.517-.331-.782-.484-.286-.166-.578-.317-.869-.469-.269-.14-.537-.282-.811-.409-.301-.14-.607-.264-.914-.389-.273-.112-.543-.228-.82-.328-.32-.116-.645-.213-.97-.313-.269-.083-.535-.173-.806-.245-.348-.093-.7-.163-1.052-.238-.253-.054-.504-.117-.758-.162-.399-.07-.801-.114-1.202-.161-.211-.025-.42-.062-.631-.08a21.5 21.5 0 0 0-3.693 0c-.211.018-.42.055-.631.08-.402.047-.803.091-1.202.161-.254.044-.505.108-.758.162-.352.075-.704.145-1.052.238-.271.072-.538.162-.806.245-.324.1-.649.197-.97.313-.276.1-.547.216-.82.328-.306.125-.612.249-.914.389-.274.127-.542.269-.811.409-.292.151-.583.303-.869.469-.264.153-.523.318-.782.484-.282.18-.563.363-.839.558-.248.175-.49.36-.732.547-.158.122-.323.23-.478.358l-234.667 192c-9.119 7.461-10.463 20.901-3.002 30.02s20.901 10.463 30.02 3.002l7.824-6.402v267.224c0 11.782 9.551 21.333 21.333 21.333h341.333c3.855 0 7.234-.884 10.111-2.38a578 578 0 0 0 6.924-2.722c11.81-4.757 20.278-9.169 28.523-15.661 36.576-28.74 61.108-83.251 61.108-132.986v-80.917c.006-10.739-7.977-19.804-18.629-21.162M85.334 469.334V201.581L256.001 49.877l170.667 151.704v41.412c-3.86-1.477-6.962-3.023-9.362-4.65-.22-.149-.449-.28-.673-.42-.234-.146-.464-.302-.703-.439-.23-.131-.466-.244-.699-.366-.243-.127-.482-.264-.729-.381-.235-.112-.476-.205-.714-.308-.251-.109-.5-.226-.754-.325-.228-.088-.462-.159-.692-.239-.269-.094-.537-.196-.809-.279-.223-.068-.449-.117-.673-.177-.285-.076-.568-.161-.855-.225-.225-.05-.453-.083-.679-.126-.289-.055-.577-.118-.868-.161-.226-.033-.453-.049-.68-.075-.294-.034-.587-.076-.881-.097-.213-.016-.427-.014-.641-.024-.309-.013-.617-.034-.926-.034-.222 0-.443.017-.665.024-.301.009-.602.011-.903.033-.249.018-.497.055-.746.083-.271.03-.544.05-.814.09-.266.039-.53.098-.794.148-.251.047-.504.084-.753.14-.204.046-.405.108-.607.16-.307.079-.616.15-.921.243-.168.051-.331.117-.498.172-.335.111-.671.218-1.002.346-.234.091-.462.2-.693.299-.259.111-.52.213-.775.334-.251.12-.494.259-.741.388-.229.12-.461.23-.686.359q-.703.403-1.381.863c-11.091 7.531-31.449 12.133-76.048 17.821-10.652 1.358-18.635 10.423-18.635 21.162v85.333c0 1.391.025 2.783.064 4.175q.02.64.046 1.28a156 156 0 0 0 .217 4.369q.103 1.576.237 3.151c.03.354.055.708.087 1.062q.19 2.081.435 4.161c.036.302.078.603.116.905q.203 1.646.439 3.289.1.685.206 1.371.225 1.469.477 2.935c.076.44.149.881.228 1.321q.33 1.836.701 3.666c.033.161.061.322.094.482q.428 2.064.906 4.118.141.597.287 1.193a170 170 0 0 0 1.93 7.328c.108.378.213.757.324 1.134q.595 2.024 1.239 4.035c.071.221.147.44.219.661q.549 1.688 1.132 3.364.226.647.459 1.293.501 1.404 1.026 2.8.242.646.488 1.291.622 1.614 1.275 3.215c.099.244.194.49.295.733q.806 1.95 1.658 3.878c.153.348.313.692.468 1.038a178 178 0 0 0 1.915 4.123q.656 1.365 1.336 2.717c.188.374.373.75.564 1.123q.957 1.876 1.956 3.725.084.152.169.304a168 168 0 0 0 1.887 3.371q.33.572.665 1.141a171 171 0 0 0 3.986 6.485c.173.268.343.54.518.807a164 164 0 0 0 2.324 3.458c.19.276.386.547.578.822a161 161 0 0 0 4.447 6.06q.393.514.789 1.024 1.213 1.552 2.461 3.07.064.08.129.159l.022.027H85.334zm384-111.083c0 37.077-18.908 79.09-44.818 99.45-4.46 3.511-9.705 6.244-18.087 9.62l-1.096.439-.105-.042c-.355-.141-.702-.28-1.054-.422-8.351-3.364-13.579-6.09-17.99-9.57-26.754-21.022-44.851-59.079-44.851-95.059v-66.674a659 659 0 0 0 2.83-.409l.505-.075c.758-.111 1.513-.222 2.256-.334l.848-.129a775 775 0 0 0 2.666-.408 421 421 0 0 0 2.451-.385c.648-.103 1.295-.206 1.932-.31l.932-.154c.527-.087 1.056-.173 1.575-.26l.901-.153c.519-.088 1.04-.176 1.551-.264l.834-.146c.519-.091 1.041-.181 1.552-.272l.895-.162c.48-.087.964-.173 1.437-.26.284-.052.56-.105.841-.158.481-.09.965-.18 1.439-.27.274-.052.541-.105.813-.158.469-.091.941-.181 1.403-.272.32-.063.632-.127.948-.191.405-.081.814-.162 1.214-.244.351-.072.694-.145 1.041-.217.357-.075.718-.149 1.071-.224.33-.07.653-.141.979-.212.366-.079.734-.158 1.095-.238l.92-.207c.364-.082.732-.163 1.091-.246.318-.073.628-.147.942-.22.343-.08.689-.16 1.028-.241.316-.075.625-.152.937-.228.328-.08.658-.159.982-.24q.46-.116.914-.232c.323-.082.648-.163.967-.246q.435-.113.863-.228c.324-.086.65-.171.969-.257q.427-.116.85-.234.473-.13.94-.26.417-.119.829-.238c.308-.089.619-.177.923-.266q.406-.12.806-.242.453-.135.901-.271c.269-.082.532-.167.798-.25.292-.092.587-.183.876-.275.266-.085.526-.172.789-.258q.423-.137.842-.276.396-.134.788-.269.408-.139.812-.278c.253-.088.501-.179.752-.268q.41-.145.816-.292.368-.136.732-.273.4-.148.797-.298.37-.143.738-.287.383-.148.761-.297.365-.146.726-.295.374-.15.744-.304.351-.147.699-.296.373-.157.744-.317.339-.148.675-.299.37-.162.738-.328.333-.152.665-.307.318-.146.635-.293c14.646 6.901 33.541 11.169 64 15.518v62.261z"/></svg>