<svg xmlns="http://www.w3.org/2000/svg" xml:space="preserve" viewBox="0 0 128 128"><circle cx="25.3" cy="45.2" r="8.2"/>
    <path
        d="M36.9 86.7H23.2V76.5l-7.1-12.1c-.3-.5-.1-1.1.3-1.4.5-.3 1.1-.1 1.4.3l8.2 14c.6 1 1.7 1.8 3 1.8h14c2 0 3.6-1.7 3.6-3.6 0-2-1.7-3.6-3.6-3.6l-11.8.1L22 56.4c-.7-1.2-2.1-1.9-3.7-1.9-.2 0-.8.1-1 .1s-.6.1-.8.2C9.7 57.1 4.3 67.9 4.3 79.1c-.1 3.4 0 6.2.2 8.9-.3 3.2 1.7 6.4 4.8 7.6.8.3 1.7.5 2.5.5h20.5v19.2c0 2.6 2.1 4.6 4.6 4.6 2.6 0 4.6-2.1 4.6-4.6V91.4c0-1.2-.5-2.4-1.4-3.3s-2.1-1.4-3.2-1.4M78.5 78.2h.2v-2.6h-2.9c-1.7-5.5-5.9-9.6-11.1-10.2.2-.3.4-.6.4-1 0-.8-.7-1.5-1.5-1.5s-1.5.7-1.5 1.5c0 .4.1.7.4 1-5.2.6-9.4 4.7-11.1 10.2h-2.9v2.6h30" />
    <path d="M28.7 80.9h69.4v3.7H28.7z" />
    <circle cx="101.5" cy="46" r="8.2" />
    <path
        d="M122.6 79.1c0-11.2-5.4-22.1-12.2-24.3-.2-.1-.6-.1-.8-.2s-.8-.1-1-.1c-1.7 0-3 .7-3.7 1.9l-9.3 15.8-11.8-.2c-1.9 0-3.6 1.6-3.6 3.6 0 1.9 1.6 3.6 3.6 3.6h14c1.3 0 2.4-.8 3-1.8l8.2-14c.3-.4.9-.6 1.4-.3.4.3.6.9.3 1.4l-7.1 12.1v10.2H90c-1.1 0-2.3.5-3.3 1.5-.9.8-1.4 2.1-1.4 3.3v23.9c0 2.6 2 4.6 4.6 4.6s4.6-2 4.6-4.6V96.1H115c.8 0 1.7-.2 2.5-.5 3.2-1.2 5.1-4.4 4.8-7.6.3-2.7.4-5.5.3-8.9" /></svg>