<svg xmlns="http://www.w3.org/2000/svg" width="800" height="800" fill="none" viewBox="0 -0.5 25 25">
    <path fill="#000"
        d="M5.245 8.917a.75.75 0 1 0-1.49.166zm.168 8.304-.745.083zM7.4 19v.75zm10.2 0v-.75zm1.988-1.779.745.083zm1.657-8.138a.75.75 0 1 0-1.49-.166zM2.5 8.25a.75.75 0 0 0 0 1.5zm20 1.5a.75.75 0 0 0 0-1.5zM4.83 8.665a.75.75 0 0 0 1.34.67zm3.34-3.33a.75.75 0 0 0-1.34-.67zm10.66 4a.75.75 0 1 0 1.34-.67zm-.66-4.67a.75.75 0 1 0-1.34.67zM8.75 15a.75.75 0 0 0 1.5 0zm1.5-2a.75.75 0 0 0-1.5 0zm1.5 2a.75.75 0 0 0 1.5 0zm1.5-2a.75.75 0 0 0-1.5 0zm1.5 2a.75.75 0 0 0 1.5 0zm1.5-2a.75.75 0 0 0-1.5 0zM3.755 9.083l.913 8.22 1.49-.165-.913-8.22zm.913 8.22A2.75 2.75 0 0 0 7.4 19.75v-1.5a1.25 1.25 0 0 1-1.242-1.112zM7.4 19.75h10.2v-1.5H7.4zm10.2 0a2.75 2.75 0 0 0 2.733-2.446l-1.49-.166A1.25 1.25 0 0 1 17.6 18.25zm2.733-2.446.912-8.221-1.49-.166-.912 8.221zM2.5 9.75h20v-1.5h-20zm3.67-.415 2-4-1.34-.67-2 4zm14-.67-2-4-1.34.67 2 4zM10.25 15v-2h-1.5v2zm3 0v-2h-1.5v2zm3 0v-2h-1.5v2z" />
</svg>