<svg xmlns="http://www.w3.org/2000/svg" xml:space="preserve" width="800" height="800"
    viewBox="0 0 512 512"><path d="m338.359 246.917-41.693-59.283a19.56 19.56 0 0 0-15.982-8.299h-99.76a19.5 19.5 0 0 0-18.556 13.422l-18.737 56.834a10.2 10.2 0 0 0 1.423 9.17 10.2 10.2 0 0 0 8.263 4.222h176.7c3.806 0 7.297-2.12 9.052-5.499a10.2 10.2 0 0 0-.71-10.567m-116.212-4.331h-54.729l14.127-42.852h40.602zm20.398-.001v-42.852h37.692l30.137 42.852zM148.526 319.143c-13.88 0-25.174 11.293-25.174 25.174s11.293 25.174 25.174 25.174 25.174-11.293 25.174-25.174-11.293-25.174-25.174-25.174m0 29.949a4.78 4.78 0 0 1-4.775-4.775 4.78 4.78 0 0 1 4.775-4.775 4.78 4.78 0 0 1 4.775 4.775 4.78 4.78 0 0 1-4.775 4.775M362.445 319.143c-13.88 0-25.174 11.293-25.174 25.174s11.293 25.174 25.174 25.174 25.174-11.293 25.174-25.174-11.293-25.174-25.174-25.174m0 29.949a4.78 4.78 0 0 1-4.775-4.775c0-2.633 2.143-4.775 4.775-4.775s4.775 2.143 4.775 4.775a4.78 4.78 0 0 1-4.775 4.775"/>
    <path
        d="M488.432 291.436h-8.351c-.776-27.351-23.251-49.365-50.786-49.365h-53.841l-50.029-71.135a52.92 52.92 0 0 0-43.243-22.455h-9.914c-1.037-21.014-18.458-37.792-39.727-37.792-5.633 0-10.199 4.566-10.199 10.199v27.593H179.9a52.77 52.77 0 0 0-50.209 36.314L110.81 242.07H89.904c-27.535 0-50.01 22.015-50.786 49.365H23.569C10.573 291.437 0 302.01 0 315.006v17.483c0 12.996 10.573 23.569 23.569 23.569h69.185c5.428 25.811 28.369 45.252 55.771 45.252s50.343-19.441 55.771-45.252h102.376c5.428 25.811 28.37 45.252 55.771 45.252s50.343-19.441 55.771-45.252h70.216v-.001c12.996 0 23.568-10.574 23.568-23.569v-17.484c.002-12.994-10.57-23.568-23.566-23.568M242.741 133.994c4.96 3.082 8.433 8.342 9.073 14.432h-9.073zM62.735 335.66H23.569a3.175 3.175 0 0 1-3.171-3.171v-17.484a3.175 3.175 0 0 1 3.171-3.171h39.166zm85.791 45.253c-20.179 0-36.596-16.417-36.596-36.595s16.417-36.596 36.596-36.596 36.596 16.417 36.596 36.596-16.417 36.595-36.596 36.595m213.919 0c-20.179 0-36.596-16.417-36.596-36.595s16.417-36.596 36.596-36.596 36.596 16.417 36.596 36.596-16.417 36.595-36.596 36.595m66.42-79.277v34.025h-10.083c-4.183-27.333-27.854-48.337-56.337-48.337s-52.155 21.004-56.337 48.337H204.864c-4.183-27.333-27.853-48.337-56.337-48.337s-52.155 21.004-56.337 48.337h-9.056v-34.025c0-5.633-4.566-10.199-10.199-10.199H59.516c.764-16.102 14.1-28.968 30.388-28.968h28.282c4.402 0 8.308-2.825 9.686-7.006l21.192-64.28A32.41 32.41 0 0 1 179.9 168.88h102.282a32.5 32.5 0 0 1 26.558 13.79l53.076 75.467a10.2 10.2 0 0 0 8.343 4.333h59.136c16.287 0 29.624 12.865 30.388 28.967h-20.618c-5.633 0-10.2 4.566-10.2 10.199m62.736 30.853a3.175 3.175 0 0 1-3.17 3.171h-39.167v-23.825h39.167a3.174 3.174 0 0 1 3.17 3.171z" />
    <path
        d="M297.817 297.334h-5.1c-5.632 0-10.199 4.566-10.199 10.199s4.567 10.199 10.199 10.199h5.1c5.632 0 10.199-4.566 10.199-10.199s-4.567-10.199-10.199-10.199M259.06 297.334h-6.12c-5.633 0-10.199 4.566-10.199 10.199s4.566 10.199 10.199 10.199h6.12c5.632 0 10.199-4.566 10.199-10.199s-4.567-10.199-10.199-10.199M279.458 271.836h-5.1c-5.632 0-10.199 4.566-10.199 10.199s4.567 10.199 10.199 10.199h5.1c5.632 0 10.199-4.566 10.199-10.199s-4.567-10.199-10.199-10.199M240.701 271.836h-6.12c-5.633 0-10.199 4.566-10.199 10.199s4.566 10.199 10.199 10.199h6.12c5.633 0 10.199-4.566 10.199-10.199s-4.566-10.199-10.199-10.199M318.215 271.836h-5.1c-5.632 0-10.199 4.566-10.199 10.199s4.567 10.199 10.199 10.199h5.1c5.632 0 10.199-4.566 10.199-10.199s-4.567-10.199-10.199-10.199M200.924 271.836h-6.12c-5.633 0-10.199 4.566-10.199 10.199s4.566 10.199 10.199 10.199h6.12c5.633 0 10.199-4.566 10.199-10.199.001-5.633-4.566-10.199-10.199-10.199M219.283 297.334h-6.12c-5.633 0-10.199 4.566-10.199 10.199s4.566 10.199 10.199 10.199h6.12c5.633 0 10.199-4.566 10.199-10.199s-4.566-10.199-10.199-10.199" /></svg>