<?xml version="1.0" encoding="iso-8859-1"?>
<!-- Uploaded to: SVG Repo, www.svgrepo.com, Generator: SVG Repo Mixer Tools -->
<svg fill="#000000" height="800px" width="800px" version="1.1" id="Layer_1" xmlns="http://www.w3.org/2000/svg" xmlns:xlink="http://www.w3.org/1999/xlink" 
	 viewBox="0 0 512 512" xml:space="preserve">
<g>
	<g>
		<path d="M338.359,246.917l-41.693-59.283c-3.654-5.197-9.629-8.299-15.982-8.299h-99.76c-8.453,0-15.911,5.394-18.556,13.422
			l-18.737,56.834c-1.025,3.108-0.496,6.519,1.423,9.17c1.917,2.653,4.992,4.222,8.263,4.222h176.7c3.806,0,7.297-2.12,9.052-5.499
			C340.822,254.105,340.548,250.03,338.359,246.917z M222.147,242.586h-54.729l14.127-42.852h40.602V242.586z M242.545,242.585
			v-42.852h37.692l30.137,42.852H242.545z"/>
	</g>
</g>
<g>
	<g>
		<path d="M148.526,319.143c-13.88,0-25.174,11.293-25.174,25.174c0,13.88,11.293,25.174,25.174,25.174
			c13.881,0,25.174-11.293,25.174-25.174C173.7,330.436,162.407,319.143,148.526,319.143z M148.526,349.092
			c-2.633,0-4.775-2.142-4.775-4.775c0-2.633,2.142-4.775,4.775-4.775c2.633,0,4.775,2.143,4.775,4.775
			C153.301,346.949,151.159,349.092,148.526,349.092z"/>
	</g>
</g>
<g>
	<g>
		<path d="M362.445,319.143c-13.88,0-25.174,11.293-25.174,25.174c0,13.88,11.293,25.174,25.174,25.174
			c13.881,0,25.174-11.293,25.174-25.174C387.619,330.436,376.326,319.143,362.445,319.143z M362.445,349.092
			c-2.632,0-4.775-2.142-4.775-4.775c0-2.633,2.143-4.775,4.775-4.775s4.775,2.143,4.775,4.775
			C367.22,346.949,365.077,349.092,362.445,349.092z"/>
	</g>
</g>
<g>
	<g>
		<path d="M488.432,291.436h-8.351c-0.776-27.351-23.251-49.365-50.786-49.365h-53.841l-50.029-71.135
			c-9.887-14.061-26.054-22.455-43.243-22.455h-9.914c-1.037-21.014-18.458-37.792-39.727-37.792
			c-5.633,0-10.199,4.566-10.199,10.199v27.593h-42.442c-22.871,0-43.049,14.594-50.209,36.314L110.81,242.07H89.904
			c-27.535,0-50.01,22.015-50.786,49.365H23.569C10.573,291.437,0,302.01,0,315.006v17.483c0,12.996,10.573,23.569,23.569,23.569
			h69.185c5.428,25.811,28.369,45.252,55.771,45.252c27.402,0,50.343-19.441,55.771-45.252h102.376
			c5.428,25.811,28.37,45.252,55.771,45.252s50.343-19.441,55.771-45.252h70.216v-0.001c12.996,0,23.568-10.574,23.568-23.569
			v-17.484C512,302.01,501.428,291.436,488.432,291.436z M242.741,133.994c4.96,3.082,8.433,8.342,9.073,14.432h-9.073V133.994z
			 M62.735,335.66H23.569c-1.748,0-3.171-1.423-3.171-3.171v-17.484c0-1.748,1.423-3.171,3.171-3.171h39.166V335.66z
			 M148.526,380.913c-20.179,0-36.596-16.417-36.596-36.595s16.417-36.596,36.596-36.596c20.179,0,36.596,16.417,36.596,36.596
			C185.122,364.497,168.705,380.913,148.526,380.913z M362.445,380.913c-20.179,0-36.596-16.417-36.596-36.595
			s16.417-36.596,36.596-36.596s36.596,16.417,36.596,36.596C399.041,364.497,382.624,380.913,362.445,380.913z M428.865,301.636
			v34.025h-10.083c-4.183-27.333-27.854-48.337-56.337-48.337c-28.483,0-52.155,21.004-56.337,48.337H204.864
			c-4.183-27.333-27.853-48.337-56.337-48.337c-28.484,0-52.155,21.004-56.337,48.337h-9.056v-34.025
			c0-5.633-4.566-10.199-10.199-10.199H59.516c0.764-16.102,14.1-28.968,30.388-28.968h28.282c4.402,0,8.308-2.825,9.686-7.006
			l21.192-64.28c4.398-13.341,16.79-22.303,30.836-22.303h102.282c10.557,0,20.485,5.156,26.558,13.79l53.076,75.467
			c1.91,2.716,5.023,4.333,8.343,4.333h59.136c16.287,0,29.624,12.865,30.388,28.967h-20.618
			C433.432,291.437,428.865,296.003,428.865,301.636z M491.601,332.489c0,1.748-1.423,3.171-3.17,3.171h-39.167v0v-23.825h39.167
			c1.748,0,3.17,1.423,3.17,3.171V332.489z"/>
	</g>
</g>
<g>
	<g>
		<path d="M297.817,297.334h-5.1c-5.632,0-10.199,4.566-10.199,10.199c0,5.633,4.567,10.199,10.199,10.199h5.1
			c5.632,0,10.199-4.566,10.199-10.199C308.016,301.9,303.449,297.334,297.817,297.334z"/>
	</g>
</g>
<g>
	<g>
		<path d="M259.06,297.334h-6.12c-5.633,0-10.199,4.566-10.199,10.199c0,5.633,4.566,10.199,10.199,10.199h6.12
			c5.632,0,10.199-4.566,10.199-10.199C269.259,301.9,264.692,297.334,259.06,297.334z"/>
	</g>
</g>
<g>
	<g>
		<path d="M279.458,271.836h-5.1c-5.632,0-10.199,4.566-10.199,10.199s4.567,10.199,10.199,10.199h5.1
			c5.632,0,10.199-4.566,10.199-10.199C289.657,276.402,285.09,271.836,279.458,271.836z"/>
	</g>
</g>
<g>
	<g>
		<path d="M240.701,271.836h-6.12c-5.633,0-10.199,4.566-10.199,10.199s4.566,10.199,10.199,10.199h6.12
			c5.633,0,10.199-4.566,10.199-10.199C250.9,276.402,246.334,271.836,240.701,271.836z"/>
	</g>
</g>
<g>
	<g>
		<path d="M318.215,271.836h-5.1c-5.632,0-10.199,4.566-10.199,10.199s4.567,10.199,10.199,10.199h5.1
			c5.632,0,10.199-4.566,10.199-10.199S323.847,271.836,318.215,271.836z"/>
	</g>
</g>
<g>
	<g>
		<path d="M200.924,271.836h-6.12c-5.633,0-10.199,4.566-10.199,10.199s4.566,10.199,10.199,10.199h6.12
			c5.633,0,10.199-4.566,10.199-10.199C211.124,276.402,206.557,271.836,200.924,271.836z"/>
	</g>
</g>
<g>
	<g>
		<path d="M219.283,297.334h-6.12c-5.633,0-10.199,4.566-10.199,10.199c0,5.633,4.566,10.199,10.199,10.199h6.12
			c5.633,0,10.199-4.566,10.199-10.199C229.482,301.9,224.916,297.334,219.283,297.334z"/>
	</g>
</g>
</svg>