<svg xmlns="http://www.w3.org/2000/svg" xml:space="preserve" width="800" height="800"
    style="fill-rule:evenodd;clip-rule:evenodd;stroke-linejoin:round;stroke-miterlimit:2"
    viewBox="0 0 64 64"><path d="M333.17 0h64v64h-64z" style="fill:none" transform="translate(-333.17)"/>
    <path
        d="M23.658 46A6.01 6.01 0 0 1 18 50a6.01 6.01 0 0 1-5.658-4H6a2 2 0 0 1-2-2V18a2 2 0 0 1 2-2h43.549a5.97 5.97 0 0 1 5.336 3.298l4.904 9.808c.139.277.211.584.211.894v14a2 2 0 0 1-2 2h-6.342A6.01 6.01 0 0 1 46 50a6.01 6.01 0 0 1-5.658-4zM18 42a2 2 0 1 1-.001 4.001A2 2 0 0 1 18 42m28 0a2 2 0 1 1-.001 4.001A2 2 0 0 1 46 42m-22.342 0h16.684A6.01 6.01 0 0 1 46 38a6.01 6.01 0 0 1 5.658 4H56V32h-8a2 2 0 0 1 0-4h6.764l-3.447-6.894A2 2 0 0 0 49.528 20H8v22h4.342A6.01 6.01 0 0 1 18 38a6.01 6.01 0 0 1 5.658 4" /></svg>